<svg width="50" height="50" viewBox="0 0 50 50" fill="none" xmlns="http://www.w3.org/2000/svg">
<g clip-path="url(#clip0_341_1265)">
<path d="M37.5 25L35.3234 22.7656L26.5625 31.4844L26.5625 12.5H23.4375L23.4375 31.4844L14.7297 22.7656L12.5 25L25 37.5L37.5 25Z" fill="white" fill-opacity="0.7"/>
<path d="M3.12499 25C3.12499 20.6735 4.40794 16.4442 6.81159 12.8469C9.21525 9.24959 12.6317 6.44581 16.6288 4.79014C20.6259 3.13448 25.0243 2.70128 29.2676 3.54533C33.5109 4.38938 37.4087 6.47277 40.468 9.53205C43.5272 12.5913 45.6106 16.4891 46.4547 20.7324C47.2987 24.9757 46.8655 29.3741 45.2099 33.3712C43.5542 37.3683 40.7504 40.7848 37.1531 43.1884C33.5558 45.5921 29.3265 46.875 25 46.875C19.2004 46.8685 13.6402 44.5617 9.53925 40.4608C5.4383 36.3598 3.13153 30.7996 3.12499 25ZM43.75 25C43.75 21.2916 42.6503 17.6665 40.59 14.5831C38.5298 11.4996 35.6014 9.09641 32.1753 7.67727C28.7492 6.25813 24.9792 5.88681 21.342 6.61029C17.7049 7.33376 14.364 9.11952 11.7417 11.7418C9.1195 14.364 7.33374 17.7049 6.61027 21.3421C5.8868 24.9792 6.25811 28.7492 7.67725 32.1753C9.09639 35.6014 11.4996 38.5298 14.583 40.5901C17.6665 42.6503 21.2916 43.75 25 43.75C29.9711 43.7443 34.7369 41.7671 38.252 38.252C41.7671 34.7369 43.7443 29.9711 43.75 25Z" fill="white" fill-opacity="0.7"/>
</g>
<defs>
<clipPath id="clip0_341_1265">
<rect width="50" height="50" fill="white" transform="matrix(0 1 -1 0 50 0)"/>
</clipPath>
</defs>
</svg>
