<svg width="109" height="110" viewBox="0 0 109 110" fill="none" xmlns="http://www.w3.org/2000/svg">
<g clip-path="url(#clip0_20_165)">
<path d="M101.123 14.5192V101.897H7.96098V7.93531L88.1887 8.01903C88.1887 8.01903 90.5044 5.76461 93.552 3.86899C98.8853 0.550149 103.757 0 103.757 0H0V110H109V8.86219C109 8.86219 105.442 9.70536 101.123 14.5192ZM106.882 107.805H2.54367V1.77005H89.2685C89.2685 1.77005 87.1508 2.61321 85.627 4.30552H4.48742V105.443H104.597V15.1112C104.597 15.1112 105.61 13.676 106.882 13.0003V107.805Z" fill="url(#paint0_linear_20_165)"/>
<path d="M92.4841 8.10275C85.2011 12.7431 80.5576 20.8758 78.4639 25.6059C72.1767 39.8201 54.497 81.0394 54.497 81.0394L52.4213 77.4933L55.4689 69.7255C55.4689 69.7255 38.2271 29.5167 35.8814 26.0843C33.5357 22.6518 30.1521 22.7475 30.1521 22.7475L15.754 22.8312L12.3944 30.3599C18.0397 30.4735 19.5095 31.0356 21.3153 33.1764C23.121 35.3172 29.4442 50.3207 29.4442 50.3207L51.9713 98.405H59.3144L75.0084 62.6692C75.0084 62.6692 85.453 37.7929 91.8362 24.2305C98.2194 10.6681 109 6.14134 109 6.14134V2.81653C109 2.81653 101.153 2.58331 92.4841 8.10873V8.10275ZM49.8416 72.5181C49.8416 72.5181 49.7696 72.3566 49.7576 72.3327C49.0137 70.6882 48.2698 69.0378 47.5259 67.3933C46.1041 64.2479 44.6883 61.1025 43.2724 57.9511C41.6347 54.3093 39.9969 50.6676 38.3711 47.0198C36.9733 43.8864 35.5754 40.7529 34.2016 37.6075C33.7337 36.5431 33.2657 35.4787 32.8158 34.4023C31.8739 32.1658 30.986 29.5227 28.7003 28.2968C27.6445 27.7287 26.4266 27.7287 25.2568 27.7287H16.5099L17.5237 25.0258H18.0277C19.7135 25.0258 25.1248 24.978 26.1146 25.0139C27.7044 25.0737 29.2282 25.3547 30.6081 26.4191C32.4558 27.8423 33.6557 29.9772 34.5856 32.0701L39.013 42.0805C40.7828 46.075 42.5525 50.0756 44.3223 54.0701C45.9001 57.6341 47.4779 61.1982 49.0557 64.7622C49.7396 66.305 50.4235 67.8478 51.1014 69.3906L49.8296 72.5121L49.8416 72.5181ZM85.543 26.9334C80.9956 36.6926 57.0827 93.2862 57.0827 93.2862H54.497L83.5873 25.6657C91.8902 9.28676 105.352 5.23838 105.352 5.23838C105.352 5.23838 92.7001 11.5591 85.531 26.9334H85.543Z" fill="url(#paint1_linear_20_165)"/>
</g>
<defs>
<linearGradient id="paint0_linear_20_165" x1="106.714" y1="2.95406" x2="0.00979437" y2="110.01" gradientUnits="userSpaceOnUse">
<stop stop-color="#F2E99C"/>
<stop offset="0.26" stop-color="#FCF9B6"/>
<stop offset="0.5" stop-color="#D4BF64"/>
<stop offset="0.74" stop-color="#F0E498"/>
<stop offset="1" stop-color="#EDD37E"/>
</linearGradient>
<linearGradient id="paint1_linear_20_165" x1="102.269" y1="-3.89888" x2="26.0497" y2="72.5669" gradientUnits="userSpaceOnUse">
<stop stop-color="#F2E99C"/>
<stop offset="0.26" stop-color="#FCF9B6"/>
<stop offset="0.5" stop-color="#D4BF64"/>
<stop offset="0.74" stop-color="#F0E498"/>
<stop offset="1" stop-color="#EDD37E"/>
</linearGradient>
<clipPath id="clip0_20_165">
<rect width="109" height="110" fill="white"/>
</clipPath>
</defs>
</svg>
